<?xml version="1.0" encoding="UTF-8"?>
<svg version="1.1" xmlns="http://www.w3.org/2000/svg" width="433" height="433">
<path d="M0 0 C1.64639387 1.15692542 3.28312546 2.32771705 4.91015625 3.51171875 C7.45444989 5.33192883 10.05531915 7.00482646 12.70703125 8.6640625 C17.92888117 11.95434206 23.00765949 15.42901687 28.0625 18.96875 C30.27832495 20.51976235 32.50937017 22.0435598 34.7578125 23.546875 C47.83124297 32.32491352 58.23557585 40.23882602 61.39453125 56.2890625 C61.58389455 59.02094373 61.69890047 61.6471553 61.6953125 64.375 C61.69959763 65.11682526 61.70388275 65.85865051 61.70829773 66.62295532 C61.71399942 68.18091824 61.7145723 69.73890777 61.71020508 71.296875 C61.70704807 73.65151429 61.73054498 76.00489065 61.75585938 78.359375 C61.81237724 91.44962271 59.9116984 101.91499945 51.39453125 112.2890625 C47.68268421 115.71538285 43.59135915 118.499455 39.39453125 121.2890625 C37.79021744 122.37217792 36.18606225 123.4555283 34.58203125 124.5390625 C30.09340426 127.55661982 25.58538387 130.54391657 21.07080078 133.52246094 C16.94294082 136.24725519 12.82436064 138.98589288 8.70703125 141.7265625 C7.96396729 142.21922607 7.22090332 142.71188965 6.45532227 143.21948242 C2.47297627 145.86791173 -1.43011115 148.59254754 -5.29296875 151.4140625 C-11.04158376 155.45974875 -16.56270922 157.01762383 -23.60546875 156.2890625 C-30.01782132 154.4136459 -35.32803451 151.26366394 -38.60546875 145.2890625 C-40.53499127 139.2041519 -40.91324016 133.64391787 -40.85546875 127.2890625 C-40.86320313 126.43828125 -40.8709375 125.5875 -40.87890625 124.7109375 C-40.85522886 116.99210764 -40.35075355 110.01510011 -34.60546875 104.2890625 C-32.25220821 102.42579195 -29.79581353 100.75650967 -27.29296875 99.1015625 C-26.58873779 98.6267041 -25.88450684 98.1518457 -25.15893555 97.66259766 C-22.97995444 96.19631735 -20.79371986 94.74146345 -18.60546875 93.2890625 C-17.2954217 92.41559134 -15.98551988 91.54190231 -14.67578125 90.66796875 C-12.80989664 89.42396555 -10.94340395 88.18093732 -9.07470703 86.94116211 C-2.85718793 82.81136804 3.27449041 78.56173857 9.39453125 74.2890625 C0.5756713 66.94001254 -9.25128382 60.82260288 -18.83789062 54.5390625 C-21.44558515 52.81471247 -24.02914498 51.05988184 -26.60546875 49.2890625 C-27.43546387 48.73476562 -28.26545898 48.18046875 -29.12060547 47.609375 C-34.67822293 43.66254583 -37.99428627 40.01394195 -39.60546875 33.2890625 C-40.12147864 29.08175903 -40.16606954 24.96104242 -40.10546875 20.7265625 C-40.1209375 19.64181641 -40.13640625 18.55707031 -40.15234375 17.43945312 C-40.11487455 9.72548231 -38.92061692 4.20971718 -33.89453125 -1.734375 C-21.95829497 -11.42906456 -11.92561632 -7.83121431 0 0 Z " fill="#00FEC2" transform="translate(264.60546875,141.7109375)"/>
<path d="M0 0 C4.91337257 3.69658124 8.03371022 7.05335384 9.04882812 13.30078125 C9.22690082 16.64854789 9.29073645 19.93514592 9.21948242 23.28369141 C9.1797408 25.37219904 9.19882703 27.4543531 9.22460938 29.54296875 C9.22416201 37.03509581 8.95379876 43.32105307 3.4921875 48.875 C1.17079272 50.92019195 -1.26977968 52.59963006 -3.8828125 54.25 C-4.58325684 54.71132324 -5.28370117 55.17264648 -6.00537109 55.64794922 C-7.45568698 56.60190728 -8.91031081 57.5493477 -10.36914062 58.49023438 C-12.39360405 59.80105133 -14.39902192 61.13574156 -16.3984375 62.484375 C-24.68716469 68.07402152 -33.07960198 73.49860685 -41.5078125 78.875 C-27.42088379 88.86153578 -27.42088379 88.86153578 -12.96484375 98.296875 C5.78602768 110.34035999 5.78602768 110.34035999 8.4921875 119.875 C8.94346978 123.84056151 8.95673156 127.76223111 8.9296875 131.75 C8.94966797 132.78769531 8.96964844 133.82539063 8.99023438 134.89453125 C8.98500803 143.18352143 7.57460384 149.65247382 1.7421875 155.75 C-4.07205726 159.55162157 -9.45070022 161.74166291 -16.5078125 160.875 C-23.7785668 158.37833314 -29.89000607 154.13457977 -36.1328125 149.75 C-38.08550379 148.39781097 -40.03862981 147.04624951 -41.9921875 145.6953125 C-42.93642578 145.03950195 -43.88066406 144.38369141 -44.85351562 143.70800781 C-48.33514381 141.30366046 -51.85305683 138.95782927 -55.3828125 136.625 C-57.14374233 135.45291303 -58.90354391 134.27914956 -60.66308594 133.10498047 C-61.96742062 132.23530893 -63.27286914 131.36730683 -64.57910156 130.50048828 C-88.26029986 114.74342453 -88.26029986 114.74342453 -92.07923889 99.06889343 C-92.74661417 95.65256023 -92.81315372 92.25589961 -92.80859375 88.7890625 C-92.81287888 88.04723724 -92.817164 87.30541199 -92.82157898 86.54110718 C-92.82728067 84.98314426 -92.82785355 83.42515473 -92.82348633 81.8671875 C-92.82032932 79.51254821 -92.84382623 77.15917185 -92.86914062 74.8046875 C-92.92589732 61.57757968 -91.00189052 50.02645329 -81.7265625 39.9375 C-78.23583609 36.7328987 -74.4554484 34.14907631 -70.44140625 31.64453125 C-64.62407778 27.97290295 -58.9319966 24.13815958 -53.2578125 20.25 C-52.31679687 19.60804688 -51.37578125 18.96609375 -50.40625 18.3046875 C-46.40737492 15.57156279 -42.41929802 12.82852021 -38.484375 10.00390625 C-35.87914514 8.14058568 -33.2570447 6.51144774 -30.5078125 4.875 C-29.02786599 3.85529756 -27.54878001 2.83434566 -26.0703125 1.8125 C-16.99144316 -4.22509793 -9.69320108 -4.57646215 0 0 Z " fill="#00FEC2" transform="translate(199.5078125,137.125)"/>
<path d="M0 0 C1.64639387 1.15692542 3.28312546 2.32771705 4.91015625 3.51171875 C7.45444989 5.33192883 10.05531915 7.00482646 12.70703125 8.6640625 C17.92888117 11.95434206 23.00765949 15.42901687 28.0625 18.96875 C30.27832495 20.51976235 32.50937017 22.0435598 34.7578125 23.546875 C47.83124297 32.32491352 58.23557585 40.23882602 61.39453125 56.2890625 C61.58389455 59.02094373 61.69890047 61.6471553 61.6953125 64.375 C61.69959763 65.11682526 61.70388275 65.85865051 61.70829773 66.62295532 C61.71399942 68.18091824 61.7145723 69.73890777 61.71020508 71.296875 C61.70704807 73.65151429 61.73054498 76.00489065 61.75585938 78.359375 C61.81237724 91.44962271 59.9116984 101.91499945 51.39453125 112.2890625 C47.68268421 115.71538285 43.59135915 118.499455 39.39453125 121.2890625 C37.79021744 122.37217792 36.18606225 123.4555283 34.58203125 124.5390625 C30.09340426 127.55661982 25.58538387 130.54391657 21.07080078 133.52246094 C16.94294082 136.24725519 12.82436064 138.98589288 8.70703125 141.7265625 C7.96396729 142.21922607 7.22090332 142.71188965 6.45532227 143.21948242 C2.47297627 145.86791173 -1.43011115 148.59254754 -5.29296875 151.4140625 C-11.04158376 155.45974875 -16.56270922 157.01762383 -23.60546875 156.2890625 C-30.01782132 154.4136459 -35.32803451 151.26366394 -38.60546875 145.2890625 C-40.53499127 139.2041519 -40.91324016 133.64391787 -40.85546875 127.2890625 C-40.86320313 126.43828125 -40.8709375 125.5875 -40.87890625 124.7109375 C-40.85522886 116.99210764 -40.35075355 110.01510011 -34.60546875 104.2890625 C-32.25220821 102.42579195 -29.79581353 100.75650967 -27.29296875 99.1015625 C-26.58873779 98.6267041 -25.88450684 98.1518457 -25.15893555 97.66259766 C-22.97995444 96.19631735 -20.79371986 94.74146345 -18.60546875 93.2890625 C-17.2954217 92.41559134 -15.98551988 91.54190231 -14.67578125 90.66796875 C-12.80989664 89.42396555 -10.94340395 88.18093732 -9.07470703 86.94116211 C-2.85718793 82.81136804 3.27449041 78.56173857 9.39453125 74.2890625 C0.5756713 66.94001254 -9.25128382 60.82260288 -18.83789062 54.5390625 C-21.44558515 52.81471247 -24.02914498 51.05988184 -26.60546875 49.2890625 C-27.43546387 48.73476562 -28.26545898 48.18046875 -29.12060547 47.609375 C-34.67822293 43.66254583 -37.99428627 40.01394195 -39.60546875 33.2890625 C-40.12147864 29.08175903 -40.16606954 24.96104242 -40.10546875 20.7265625 C-40.1209375 19.64181641 -40.13640625 18.55707031 -40.15234375 17.43945312 C-40.11487455 9.72548231 -38.92061692 4.20971718 -33.89453125 -1.734375 C-21.95829497 -11.42906456 -11.92561632 -7.83121431 0 0 Z M37.39453125 30.2890625 C38.25494515 34.62135965 38.25494515 34.62135965 40.39453125 38.2890625 C40.52122767 40.34861598 40.57037354 42.41314868 40.58203125 44.4765625 C40.59621094 45.60449219 40.61039062 46.73242188 40.625 47.89453125 C40.21717948 53.90124361 38.57296448 57.88525838 34.2578125 61.96484375 C30.97076352 64.30092258 27.26853908 65.30764718 23.39453125 66.2890625 C23.39453125 66.9490625 23.39453125 67.6090625 23.39453125 68.2890625 C22.79640625 68.3921875 22.19828125 68.4953125 21.58203125 68.6015625 C19.02129538 69.4063652 18.23358556 70.36499108 16.39453125 72.2890625 C12.242011 76.1896516 8.76120309 79.25842991 3.39453125 81.2890625 C2.56953125 82.1140625 1.74453125 82.9390625 0.89453125 83.7890625 C-1.58649645 86.2700902 -3.30418828 87.25151721 -6.60546875 88.2890625 C-6.60546875 88.9490625 -6.60546875 89.6090625 -6.60546875 90.2890625 C-8.58546875 90.7840625 -8.58546875 90.7840625 -10.60546875 91.2890625 C-10.60546875 91.9490625 -10.60546875 92.6090625 -10.60546875 93.2890625 C-11.18554688 93.39476562 -11.765625 93.50046875 -12.36328125 93.609375 C-14.92820272 94.38689475 -16.40171117 95.48602927 -18.48046875 97.1640625 C-20.95014545 99.09665338 -23.00132356 100.47937731 -25.85546875 101.8515625 C-29.05047773 103.52168083 -30.47451554 105.42329783 -32.60546875 108.2890625 C-34.09046875 109.2790625 -34.09046875 109.2790625 -35.60546875 110.2890625 C-38.38789028 115.72138162 -37.93590774 121.20114218 -37.91796875 127.1640625 C-37.93408203 128.22753906 -37.95019531 129.29101562 -37.96679688 130.38671875 C-37.97114999 137.3952264 -37.73536302 142.94308766 -32.73828125 148.28515625 C-32.07570312 148.76082031 -31.413125 149.23648438 -30.73046875 149.7265625 C-30.07304687 150.22027344 -29.415625 150.71398437 -28.73828125 151.22265625 C-26.19764724 152.49297326 -24.40914621 152.40786239 -21.60546875 152.2890625 C-21.11046875 152.7840625 -21.11046875 152.7840625 -20.60546875 153.2890625 C-10.0006919 153.05852387 -0.81376973 145.3318937 7.39453125 139.2890625 C8.14863281 138.76699219 8.90273438 138.24492187 9.6796875 137.70703125 C10.52853516 137.00513672 10.52853516 137.00513672 11.39453125 136.2890625 C11.39453125 135.6290625 11.39453125 134.9690625 11.39453125 134.2890625 C12.05453125 134.2478125 12.71453125 134.2065625 13.39453125 134.1640625 C17.71752816 132.9031884 21.20844911 130.46770052 24.39453125 127.2890625 C25.16860538 125.18438096 25.16860538 125.18438096 25.39453125 123.2890625 C25.98105469 123.50304687 26.56757813 123.71703125 27.171875 123.9375 C29.40129895 124.51795151 29.40129895 124.51795151 31.2109375 123.328125 C31.78714844 122.86148438 32.36335938 122.39484375 32.95703125 121.9140625 C35.23833972 120.09511276 36.55505773 119.23555367 39.39453125 118.2890625 C40.41650117 117.31152606 41.4143275 116.3084744 42.39453125 115.2890625 C43.07515625 114.8146875 43.75578125 114.3403125 44.45703125 113.8515625 C46.48753965 112.44850095 46.48753965 112.44850095 47.26953125 110.4140625 C48.39453125 108.2890625 48.39453125 108.2890625 51.39453125 105.9140625 C54.7724564 102.95837799 55.32652649 101.56108156 56.39453125 97.2890625 C56.63292725 96.70068604 56.87132324 96.11230957 57.11694336 95.50610352 C59.93731279 88.40855872 59.83943614 81.53017424 59.76953125 73.9765625 C59.78113281 72.73455078 59.79273438 71.49253906 59.8046875 70.21289062 C60.03198968 57.12540533 60.03198968 57.12540533 54.87866211 45.61108398 C54.38889893 45.17481689 53.89913574 44.7385498 53.39453125 44.2890625 C52.92917969 43.48984375 52.46382813 42.690625 51.984375 41.8671875 C50.25854455 39.06854353 48.41564313 37.21159644 45.95703125 35.0390625 C45.19519531 34.35328125 44.43335938 33.6675 43.6484375 32.9609375 C41.4663579 31.34234119 40.04675491 30.6998853 37.39453125 30.2890625 Z " fill="#06ECB6" transform="translate(264.60546875,141.7109375)"/>
<path d="M0 0 C0.33 0 0.66 0 1 0 C0.55820806 5.52239931 -0.59525972 8.64060807 -4 13 C-6.30493301 14.96277788 -8.77493419 16.60396199 -11.3125 18.25 C-12.01745605 18.72034668 -12.72241211 19.19069336 -13.44873047 19.67529297 C-14.91100573 20.64938171 -16.37653242 21.61860657 -17.84521484 22.58300781 C-19.87061528 23.91491628 -21.88457189 25.26212404 -23.89453125 26.6171875 C-32.18577104 32.1985339 -40.57390512 37.62495643 -49 43 C-34.91307129 52.98653578 -34.91307129 52.98653578 -20.45703125 62.421875 C-1.70615982 74.46535999 -1.70615982 74.46535999 1 84 C1.45128228 87.96556151 1.46454406 91.88723111 1.4375 95.875 C1.45748047 96.91269531 1.47746094 97.95039063 1.49804688 99.01953125 C1.49282053 107.30852143 0.08241634 113.77747382 -5.75 119.875 C-11.56424476 123.67662157 -16.94288772 125.86666291 -24 125 C-31.2707543 122.50333314 -37.38219357 118.25957977 -43.625 113.875 C-45.57769129 112.52281097 -47.53081731 111.17124951 -49.484375 109.8203125 C-50.90073242 108.83659668 -50.90073242 108.83659668 -52.34570312 107.83300781 C-55.82733131 105.42866046 -59.34524433 103.08282927 -62.875 100.75 C-64.63592983 99.57791303 -66.39573141 98.40414956 -68.15527344 97.22998047 C-69.45960812 96.36030893 -70.76505664 95.49230683 -72.07128906 94.62548828 C-95.46580561 79.05917766 -95.46580561 79.05917766 -99.3125 64.6875 C-100 61 -100 61 -100 57 C-99.01 57 -98.02 57 -97 57 C-96.7525 57.94875 -96.505 58.8975 -96.25 59.875 C-93.11700257 70.51860772 -89.04259896 79.75694076 -79 85.5625 C-78.01 86.036875 -77.02 86.51125 -76 87 C-76.28875 86.50113281 -76.5775 86.00226563 -76.875 85.48828125 C-80.35120263 78.76520881 -80.99690556 72.49159722 -80 65 C-78.96858946 62.34852021 -77.97436495 61.14359623 -76 59 C-75.566875 58.46375 -75.13375 57.9275 -74.6875 57.375 C-72.98522811 55.98796365 -71.29169669 55.00319898 -69.375 53.9375 C-65.96685641 52.39458084 -65.96685641 52.39458084 -65 50 C-62.00377753 48.19096002 -59.07543373 46.47445606 -55.875 45.0625 C-53.74445024 43.97027535 -53.74445024 43.97027535 -51.5625 41.5 C-49.04936462 39.0481606 -47.30399584 38.03839869 -44 37 C-44 36.34 -44 35.68 -44 35 C-41.734375 33.30859375 -41.734375 33.30859375 -38.75 31.4375 C-37.77546875 30.81746094 -36.8009375 30.19742188 -35.796875 29.55859375 C-33.43180391 28.24062816 -31.63809243 27.45852559 -29 27 C-29 26.01 -29 25.02 -29 24 C-25.66666667 22.66666667 -22.33333333 21.33333333 -19 20 C-19 19.01 -19 18.02 -19 17 C-17.989375 16.62875 -16.97875 16.2575 -15.9375 15.875 C-8.68269971 12.73223226 -4.53087229 7.9259418 -1 1 C-0.67 0.67 -0.34 0.34 0 0 Z " fill="#06ECB6" transform="translate(207,173)"/>
<path d="M0 0 C11.30839933 7.00043768 19.33480326 14.52164471 22.57142639 27.80610657 C23.23880167 31.22243977 23.30534122 34.61910039 23.30078125 38.0859375 C23.30506638 38.82776276 23.3093515 39.56958801 23.31376648 40.33389282 C23.31946817 41.89185574 23.32004105 43.44984527 23.31567383 45.0078125 C23.31251682 47.36245179 23.33601373 49.71582815 23.36132812 52.0703125 C23.41784599 65.16056021 21.51716715 75.62593695 13 86 C9.28815296 89.42632035 5.1968279 92.2103925 1 95 C-0.60431381 96.08311542 -2.208469 97.1664658 -3.8125 98.25 C-8.30112699 101.26755732 -12.80914738 104.25485407 -17.32373047 107.23339844 C-21.45159043 109.95819269 -25.57017061 112.69683038 -29.6875 115.4375 C-30.43056396 115.93016357 -31.17362793 116.42282715 -31.93920898 116.93041992 C-35.92155498 119.57884923 -39.8246424 122.30348504 -43.6875 125.125 C-49.43611501 129.17068625 -54.95724047 130.72856133 -62 130 C-68.41235257 128.1245834 -73.72256576 124.97460144 -77 119 C-78.92952252 112.9150894 -79.30777141 107.35485537 -79.25 101 C-79.25773438 100.14921875 -79.26546875 99.2984375 -79.2734375 98.421875 C-79.24976011 90.70304514 -78.7452848 83.72603761 -73 78 C-70.64673946 76.13672945 -68.19034478 74.46744717 -65.6875 72.8125 C-64.98326904 72.3376416 -64.27903809 71.8627832 -63.5534668 71.37353516 C-61.37448569 69.90725485 -59.18825111 68.45240095 -57 67 C-55.68995295 66.12652884 -54.38005113 65.25283981 -53.0703125 64.37890625 C-51.20442789 63.13490305 -49.3379352 61.89187482 -47.46923828 60.65209961 C-41.25171918 56.52230554 -35.12004084 52.27267607 -29 48 C-27.68 48.66 -26.36 49.32 -25 50 C-26.09758507 50.84198307 -27.20335317 51.67330671 -28.3125 52.5 C-28.92738281 52.9640625 -29.54226563 53.428125 -30.17578125 53.90625 C-32 55 -32 55 -35 55 C-35.33 55.99 -35.66 56.98 -36 58 C-38.66083969 59.99396257 -41.61242325 62 -45 62 C-45 62.66 -45 63.32 -45 64 C-46.98 64.495 -46.98 64.495 -49 65 C-49 65.66 -49 66.32 -49 67 C-50.051875 67.5775 -51.10375 68.155 -52.1875 68.75 C-54.51666748 70.07360321 -56.46073211 71.37083316 -58.5625 73.0625 C-61 75 -61 75 -64.0625 76.4375 C-67.33970452 78.18069389 -68.82126877 80.04315048 -71 83 C-71.99 83.495 -71.99 83.495 -73 84 C-74.80893233 87.61109113 -75.25614008 90.58722868 -75.265625 94.59765625 C-75.26820313 95.64630859 -75.27078125 96.69496094 -75.2734375 97.77539062 C-75.26570312 98.86013672 -75.25796875 99.94488281 -75.25 101.0625 C-75.25773438 102.15111328 -75.26546875 103.23972656 -75.2734375 104.36132812 C-75.27085937 105.40869141 -75.26828125 106.45605469 -75.265625 107.53515625 C-75.26336914 108.487854 -75.26111328 109.44055176 -75.25878906 110.42211914 C-74.98962365 113.10336211 -74.2512176 114.65132665 -73 117 C-73 117.99 -73 118.98 -73 120 C-72.01 120.33 -71.02 120.66 -70 121 C-70 121.66 -70 122.32 -70 123 C-66.22727871 124.20405999 -62.47043191 125.21689341 -58.5625 125.875 C-57.54349609 126.05675781 -57.54349609 126.05675781 -56.50390625 126.2421875 C-49.82061801 125.595754 -43.68547949 120.668115 -38.25 117 C-37.60417969 116.57460938 -36.95835937 116.14921875 -36.29296875 115.7109375 C-32.82714587 113.39090001 -29.91306502 111.00725188 -27 108 C-25.3364521 107.32558869 -23.66933058 106.6599679 -22 106 C-17.1568969 103.15265074 -17.1568969 103.15265074 -13.9375 98.75 C-13.4734375 97.88375 -13.4734375 97.88375 -13 97 C-11.00371336 96.6451046 -9.00309329 96.31421071 -7 96 C-5.30678061 94.70055256 -3.63604196 93.37073786 -2 92 C-1.01 92 -0.02 92 1 92 C1.495 90.515 1.495 90.515 2 89 C2.78375 88.54625 3.5675 88.0925 4.375 87.625 C7.41468986 85.74328723 8.21801665 84.04422156 10 81 C10.845625 80.360625 11.69125 79.72125 12.5625 79.0625 C15.59207365 76.49901461 15.99313939 74.81168658 17 71 C17.24041016 70.40960938 17.48082031 69.81921875 17.72851562 69.2109375 C20.54326484 62.11585188 20.44486681 55.23699677 20.375 47.6875 C20.38660156 46.44548828 20.39820313 45.20347656 20.41015625 43.92382812 C20.63742548 30.82667154 20.63742548 30.82667154 15.47021484 19.3112793 C14.98504395 18.87855713 14.49987305 18.44583496 14 18 C13.4121875 16.88625 13.4121875 16.88625 12.8125 15.75 C9.32746435 10.4623597 4.194926 5.74232294 -2 4 C-1.33333333 2.66666667 -0.66666667 1.33333333 0 0 Z " fill="#0DF3BE" transform="translate(303,168)"/>
<path d="M0 0 C3.71983917 2.56860774 6.45569246 5.49097705 8.34765625 9.62109375 C8.22265625 13.12109375 8.22265625 13.12109375 7.34765625 15.62109375 C4.66209685 12.93553435 4.28715651 10.24488047 3.34765625 6.62109375 C2.68765625 6.62109375 2.02765625 6.62109375 1.34765625 6.62109375 C0.01432292 5.28776042 -1.31901042 3.95442708 -2.65234375 2.62109375 C-7.20036871 -0.6274955 -12.91570712 0.3730028 -18.15234375 1.12109375 C-18.97734375 1.28609375 -19.80234375 1.45109375 -20.65234375 1.62109375 C-20.65234375 2.28109375 -20.65234375 2.94109375 -20.65234375 3.62109375 C-21.21824219 3.88664063 -21.78414063 4.1521875 -22.3671875 4.42578125 C-23.46740234 4.95558594 -23.46740234 4.95558594 -24.58984375 5.49609375 C-25.68619141 6.01816406 -25.68619141 6.01816406 -26.8046875 6.55078125 C-28.81566834 7.48959145 -28.81566834 7.48959145 -29.65234375 9.62109375 C-30.64234375 9.62109375 -31.63234375 9.62109375 -32.65234375 9.62109375 C-32.65234375 10.28109375 -32.65234375 10.94109375 -32.65234375 11.62109375 C-34.63234375 12.28109375 -36.61234375 12.94109375 -38.65234375 13.62109375 C-38.65234375 14.28109375 -38.65234375 14.94109375 -38.65234375 15.62109375 C-39.15121094 15.87761719 -39.65007812 16.13414062 -40.1640625 16.3984375 C-46.30860959 19.67479385 -51.96183771 23.5188757 -57.63671875 27.53515625 C-60.65234375 29.62109375 -60.65234375 29.62109375 -63.48046875 31.26953125 C-65.77808925 32.43666274 -65.77808925 32.43666274 -66.65234375 34.62109375 C-67.39484375 34.90855469 -68.13734375 35.19601563 -68.90234375 35.4921875 C-76.11770316 38.45417453 -82.17550461 45.11322586 -85.6328125 52.015625 C-87.36312254 56.43752845 -88.58126216 60.98597501 -89.7578125 65.58203125 C-90.65234375 68.62109375 -90.65234375 68.62109375 -92.65234375 71.62109375 C-93.30955996 60.18066341 -90.52302186 50.86527885 -83.65234375 41.62109375 C-79.81512433 37.44727613 -75.37717488 34.38009783 -70.5859375 31.390625 C-64.76860903 27.7189967 -59.07652785 23.88425333 -53.40234375 19.99609375 C-52.46132812 19.35414063 -51.5203125 18.7121875 -50.55078125 18.05078125 C-46.55190617 15.31765654 -42.56382927 12.57461396 -38.62890625 9.75 C-36.02367639 7.88667943 -33.40157595 6.25754149 -30.65234375 4.62109375 C-29.17239724 3.60139131 -27.69331126 2.58043941 -26.21484375 1.55859375 C-17.24696932 -4.40519073 -9.4655526 -5.16435868 0 0 Z " fill="#0EF1BE" transform="translate(199.65234375,137.37890625)"/>
<path d="M0 0 C2.36543803 1.64508509 4.7005035 3.31759167 7.0078125 5.04296875 C6.6778125 5.70296875 6.3478125 6.36296875 6.0078125 7.04296875 C1.2578125 6.16796875 1.2578125 6.16796875 -0.9921875 5.04296875 C-0.9921875 4.38296875 -0.9921875 3.72296875 -0.9921875 3.04296875 C-1.8275 2.64078125 -1.8275 2.64078125 -2.6796875 2.23046875 C-4.9921875 1.04296875 -4.9921875 1.04296875 -7.3671875 -0.45703125 C-13.27865412 -3.83501218 -17.43332534 -4.37811805 -23.9921875 -2.95703125 C-24.9821875 -1.47203125 -24.9821875 -1.47203125 -25.9921875 0.04296875 C-28.6171875 0.73046875 -28.6171875 0.73046875 -30.9921875 1.04296875 C-31.6521875 3.02296875 -32.3121875 5.00296875 -32.9921875 7.04296875 C-33.6521875 7.04296875 -34.3121875 7.04296875 -34.9921875 7.04296875 C-35.96151608 11.91269088 -36.14339136 16.54104124 -36.1171875 21.48046875 C-36.12105469 22.20556641 -36.12492188 22.93066406 -36.12890625 23.67773438 C-36.12072158 28.23250501 -35.73817089 32.54930689 -34.9921875 37.04296875 C-34.0021875 37.04296875 -33.0121875 37.04296875 -31.9921875 37.04296875 C-32.3221875 38.36296875 -32.6521875 39.68296875 -32.9921875 41.04296875 C-32.9921875 40.05296875 -32.9921875 39.06296875 -32.9921875 38.04296875 C-33.6521875 38.04296875 -34.3121875 38.04296875 -34.9921875 38.04296875 C-34.9921875 38.70296875 -34.9921875 39.36296875 -34.9921875 40.04296875 C-35.6521875 40.04296875 -36.3121875 40.04296875 -36.9921875 40.04296875 C-40.46079392 33.63018712 -40.47615896 27.80009638 -40.4296875 20.60546875 C-40.44966797 19.51169922 -40.46964844 18.41792969 -40.49023438 17.29101562 C-40.48555268 9.51471844 -39.34879323 4.01265315 -34.28125 -1.98046875 C-22.14831338 -11.83491962 -12.06140004 -7.88872248 0 0 Z " fill="#10F1BD" transform="translate(264.9921875,141.95703125)"/>
<path d="M0 0 C1.9375 0.3125 1.9375 0.3125 4 1 C5.59190696 5.77572089 5.26767707 10.62276113 5.3125 15.625 C5.34150391 16.68074219 5.37050781 17.73648437 5.40039062 18.82421875 C5.46814073 27.23565476 4.17617004 33.67945859 -1.75 39.875 C-7.56424476 43.67662157 -12.94288772 45.86666291 -20 45 C-26.90245572 42.8284409 -33.63205236 38.83003222 -39 34 C-39 33.01 -39 32.02 -39 31 C-34.64742531 32.00444031 -31.88371787 33.76849946 -28.5 36.5625 C-25.03362629 39.38955944 -22.61515895 40.88166259 -18 41 C-18 41.99 -18 42.98 -18 44 C-16.68 44 -15.36 44 -14 44 C-14 43.01 -14 42.02 -14 41 C-13.32453125 40.79246094 -12.6490625 40.58492188 -11.953125 40.37109375 C-5.75072151 38.31924661 -5.75072151 38.31924661 -1.4375 33.6875 C1.16160199 27.02023838 1.15788984 20.36737117 1.125 13.3125 C1.12886719 12.47138672 1.13273437 11.63027344 1.13671875 10.76367188 C1.13478516 9.54454102 1.13478516 9.54454102 1.1328125 8.30078125 C1.13112061 7.20503784 1.13112061 7.20503784 1.12939453 6.0871582 C0.99682207 3.94873934 0.58427103 2.05713301 0 0 Z " fill="#0FF2BD" transform="translate(203,253)"/>
<path d="M0 0 C0.33 0 0.66 0 1 0 C0.55820806 5.52239931 -0.59525972 8.64060807 -4 13 C-6.30493887 14.96278287 -8.77497923 16.60388425 -11.3125 18.25 C-12.01818115 18.72107178 -12.7238623 19.19214355 -13.45092773 19.67749023 C-14.91387178 20.65240567 -16.38012973 21.62236609 -17.84960938 22.58740234 C-19.86028771 23.9082226 -21.86162517 25.24176217 -23.859375 26.58203125 C-26.31374736 28.22814287 -28.77353297 29.86556294 -31.23828125 31.49609375 C-33.89694423 33.25801055 -36.53644489 35.04546852 -39.16796875 36.84765625 C-39.85109131 37.31228271 -40.53421387 37.77690918 -41.23803711 38.25561523 C-42.55119623 39.14937928 -43.86079253 40.04840708 -45.16625977 40.95336914 C-49.66278956 44 -49.66278956 44 -53 44 C-51.549046 40.17475764 -49.61818068 38.80909034 -46 37 C-45.34 37 -44.68 37 -44 37 C-44 36.34 -44 35.68 -44 35 C-41.734375 33.30859375 -41.734375 33.30859375 -38.75 31.4375 C-37.77546875 30.81746094 -36.8009375 30.19742188 -35.796875 29.55859375 C-33.43180391 28.24062816 -31.63809243 27.45852559 -29 27 C-29 26.01 -29 25.02 -29 24 C-25.66666667 22.66666667 -22.33333333 21.33333333 -19 20 C-19 19.01 -19 18.02 -19 17 C-17.989375 16.62875 -16.97875 16.2575 -15.9375 15.875 C-8.68269971 12.73223226 -4.53087229 7.9259418 -1 1 C-0.67 0.67 -0.34 0.34 0 0 Z " fill="#0EF2BE" transform="translate(207,173)"/>
<path d="M0 0 C0.66 0 1.32 0 2 0 C2 0.99 2 1.98 2 3 C4.64 3.33 7.28 3.66 10 4 C10.268125 4.804375 10.53625 5.60875 10.8125 6.4375 C11.204375 7.283125 11.59625 8.12875 12 9 C12.99 9.33 13.98 9.66 15 10 C15 10.66 15 11.32 15 12 C15.78375 12.28875 16.5675 12.5775 17.375 12.875 C20 14 20 14 22 16 C22.99 16.12375 23.98 16.2475 25 16.375 C26.485 16.684375 26.485 16.684375 28 17 C28.29648437 17.61359375 28.59296875 18.2271875 28.8984375 18.859375 C30.33460683 21.65022888 31.89206887 22.37738759 34.625 23.875 C39.30808846 26.55688496 44.02402625 29.31278412 48 33 C48 33.66 48 34.32 48 35 C43.12916568 34.50502567 40.36088353 33.2003238 36.4375 30.3125 C35.30774444 29.4962635 34.176089 28.68265284 33.04296875 27.87109375 C32.41310059 27.41847168 31.78323242 26.96584961 31.13427734 26.49951172 C26.04172046 22.92155652 20.80451282 19.54906823 15.59936523 16.13793945 C9.85434538 12.33959268 4.37332859 8.3081241 -1 4 C-0.67 2.68 -0.34 1.36 0 0 Z " fill="#11E9B8" transform="translate(230,180)"/>
<path d="M0 0 C1.32 0 2.64 0 4 0 C4 0.66 4 1.32 4 2 C4.680625 2.2475 5.36125 2.495 6.0625 2.75 C9.56865083 4.24197908 12.71620368 6.06835511 16 8 C16 8.66 16 9.32 16 10 C16.7425 10.268125 17.485 10.53625 18.25 10.8125 C20.89110345 11.95297649 22.71569429 13.28677072 25 15 C26.175625 15.37125 26.175625 15.37125 27.375 15.75 C31.2392115 17.59010071 33.40693527 20.66733261 36 24 C35.01 24.33 34.02 24.66 33 25 C31.0456543 23.97119141 31.0456543 23.97119141 28.82421875 22.3515625 C28.00211914 21.76197754 27.18001953 21.17239258 26.33300781 20.56494141 C25.45999023 19.92476074 24.58697266 19.28458008 23.6875 18.625 C21.88564393 17.33120077 20.08224867 16.03954254 18.27734375 14.75 C17.38644043 14.11191406 16.49553711 13.47382813 15.57763672 12.81640625 C12.03159563 10.31758586 8.41239233 7.94886532 4.75 5.625 C4.16049561 5.25068848 3.57099121 4.87637695 2.96362305 4.49072266 C1.64466399 3.65691412 0.32273547 2.82780465 -1 2 C-0.67 1.34 -0.34 0.68 0 0 Z " fill="#12E5B5" transform="translate(129,261)"/>
<path d="M0 0 C0.99 0 1.98 0 3 0 C3.2475 0.94875 3.495 1.8975 3.75 2.875 C6.74699472 13.05657111 10.49126709 21.55187051 19.56640625 27.75390625 C21.98937195 29.22788272 21.98937195 29.22788272 25 29 C25 29.66 25 30.32 25 31 C23 31.875 23 31.875 20 32 C11.37766146 27.43629362 4.98879299 19.52568493 1.7109375 10.4765625 C0.70397306 6.96878526 0.26941173 3.63705834 0 0 Z " fill="#0FF3BE" transform="translate(107,230)"/>
<path d="M0 0 C3.6010312 0.38679383 5.36223595 1.29639583 8.35498047 3.2980957 C9.28310547 3.91620117 10.21123047 4.53430664 11.16748047 5.17114258 C12.11880859 5.8253418 13.07013672 6.47954102 14.05029297 7.15356445 C15.02482422 7.79616211 15.99935547 8.43875977 17.00341797 9.10083008 C22.3128564 12.68879092 22.3128564 12.68879092 24.17529297 14.34106445 C24.17529297 15.33106445 24.17529297 16.32106445 24.17529297 17.34106445 C19.69998934 16.81408124 17.20279446 15.14332334 13.67529297 12.40356445 C9.33155071 9.04204481 5.8104083 6.34106445 0.17529297 6.34106445 C0.17529297 5.68106445 0.17529297 5.02106445 0.17529297 4.34106445 C-2.7165749 3.00801748 -2.7165749 3.00801748 -5.01220703 4.27856445 C-5.61033203 4.62918945 -6.20845703 4.97981445 -6.82470703 5.34106445 C-3.63858254 0.43933447 -3.63858254 0.43933447 0 0 Z M-8.82470703 5.34106445 C-6.82470703 6.34106445 -6.82470703 6.34106445 -6.82470703 6.34106445 Z " fill="#13DBAE" transform="translate(155.82470703125,216.658935546875)"/>
<path d="M0 0 C2.34765625 1.1875 2.34765625 1.1875 5.0625 3 C6.03316406 3.64453125 7.00382812 4.2890625 8.00390625 4.953125 C8.99261719 5.62859375 9.98132813 6.3040625 11 7 C11.93714844 7.63421875 12.87429688 8.2684375 13.83984375 8.921875 C22.02215589 14.54496176 22.02215589 14.54496176 24 17 C24.1875 20.6875 24.1875 20.6875 24 24 C22.68 24 21.36 24 20 24 C19.51171875 21.02148438 19.51171875 21.02148438 19.0234375 18.04296875 C17.47822919 14.95844988 15.08573267 14.40260576 12 13 C10.09606356 11.72983966 8.22022944 10.41653456 6.375 9.0625 C5.45460938 8.39347656 4.53421875 7.72445312 3.5859375 7.03515625 C1.19959687 5.15708455 -0.90731048 3.19585028 -3 1 C-2.01 0.67 -1.02 0.34 0 0 Z " fill="#14E0B2" transform="translate(275,149)"/>
<path d="M0 0 C4.45994606 0.49554956 5.93372808 1.84612031 9 5 C10.92910667 6.2987626 12.90746305 7.49522613 14.89453125 8.703125 C18.06651225 10.65692406 21.0477104 12.72427677 24 15 C24 15.66 24 16.32 24 17 C18.82333254 16.5471392 15.51420647 14.65972142 11.4375 11.625 C6.91134025 8.32213537 6.91134025 8.32213537 2.09765625 5.4609375 C1.40542969 4.97882813 0.71320313 4.49671875 0 4 C0 2.68 0 1.36 0 0 Z " fill="#15DDB0" transform="translate(254,198)"/>
<path d="M0 0 C3.91740859 0.38733928 6.75216129 2.64743372 9.9375 4.8125 C10.95714844 5.49957031 11.97679687 6.18664062 13.02734375 6.89453125 C15.77202791 8.83853225 18.39926378 10.86864159 21 13 C20.67 13.99 20.34 14.98 20 16 C18.989375 15.2575 17.97875 14.515 16.9375 13.75 C13.41124871 11.22819605 9.78873956 9.10485531 6 7 C5.113125 6.443125 4.22625 5.88625 3.3125 5.3125 C1.16371694 4.09292043 -0.58560775 3.44710968 -3 3 C-1.75 1.4375 -1.75 1.4375 0 0 Z " fill="#12E6B5" transform="translate(179,232)"/>
<path d="M0 0 C0 3 0 3 -1.5390625 4.75390625 C-5.52232409 8.20755815 -8.72504167 10.81313438 -14 12 C-9.73412126 7.45890328 -4.96387672 3.75264754 0 0 Z " fill="#04DEAB" transform="translate(302,196)"/>
<path d="M0 0 C0.66 0.33 1.32 0.66 2 1 C0.88121617 2.17262904 -0.24523051 3.33795138 -1.375 4.5 C-2.00148437 5.1496875 -2.62796875 5.799375 -3.2734375 6.46875 C-5 8 -5 8 -7 8 C-6.875 6.25 -6.875 6.25 -6 4 C-2.9375 1.75 -2.9375 1.75 0 0 Z " fill="#04E0AC" transform="translate(139,226)"/>
<path d="M0 0 C0.33 0.99 0.66 1.98 1 3 C-1.64 5.64 -4.28 8.28 -7 11 C-7.99 10.67 -8.98 10.34 -10 10 C-9.44570313 9.52949219 -8.89140625 9.05898437 -8.3203125 8.57421875 C-7.59585937 7.95160156 -6.87140625 7.32898438 -6.125 6.6875 C-5.40570313 6.07261719 -4.68640625 5.45773438 -3.9453125 4.82421875 C-1.80820669 2.9587676 -1.80820669 2.9587676 0 0 Z " fill="#09F5BC" transform="translate(304,195)"/>
<path d="M0 0 C2.0625 0.4375 2.0625 0.4375 4 1 C4 2.65 4 4.3 4 6 C2.68 6 1.36 6 0 6 C-0.38218767 4.34385343 -0.71395102 2.67542976 -1 1 C-0.67 0.67 -0.34 0.34 0 0 Z " fill="#08E1AD" transform="translate(295,167)"/>
<path d="M0 0 C1.32 0 2.64 0 4 0 C4.66 1.65 5.32 3.3 6 5 C2.73045798 4.43628586 1.17424117 3.50037734 -1 1 C-0.67 0.67 -0.34 0.34 0 0 Z " fill="#16EAB8" transform="translate(129,261)"/>
</svg>
